<?xml version="1.0" standalone="no"?>
<!DOCTYPE svg PUBLIC "-//W3C//DTD SVG 20010904//EN"
 "http://www.w3.org/TR/2001/REC-SVG-20010904/DTD/svg10.dtd">
<svg version="1.0" xmlns="http://www.w3.org/2000/svg"
 width="700.000000pt" height="700.000000pt" viewBox="0 0 700.000000 700.000000"
 preserveAspectRatio="xMidYMid meet">
<metadata>
Created by potrace 1.11, written by Peter Selinger 2001-2013
</metadata>
<g transform="translate(0.000000,700.000000) scale(0.100000,-0.100000)"
fill="#000000" stroke="none">
<path d="M1784 6542 c-58 -9 -107 -84 -475 -730 -21 -35 -113 -195 -262 -452
-49 -85 -97 -168 -107 -185 -9 -16 -41 -72 -71 -123 -30 -52 -65 -112 -78
-135 -13 -23 -189 -328 -391 -677 -202 -349 -374 -649 -384 -667 -23 -46 -20
-93 12 -154 22 -43 165 -293 225 -394 35 -58 56 -95 79 -135 32 -58 206 -360
269 -468 27 -45 49 -87 49 -92 0 -6 5 -10 10 -10 6 0 10 -4 10 -10 0 -5 21
-44 46 -87 25 -43 62 -107 82 -143 19 -36 40 -72 46 -80 6 -8 16 -24 22 -35
38 -69 66 -118 88 -154 14 -22 26 -42 26 -44 0 -2 35 -64 78 -138 43 -74 90
-154 104 -179 14 -25 67 -117 118 -205 51 -88 101 -173 110 -190 43 -75 192
-333 205 -355 8 -14 36 -63 62 -109 34 -58 60 -92 87 -110 l40 -26 1716 0
1717 0 37 25 c31 20 71 83 222 345 101 176 188 327 194 335 5 8 31 53 57 99
26 47 55 96 63 110 8 14 40 69 70 121 30 52 60 102 65 111 6 9 20 34 32 55 11
22 85 149 163 284 78 135 154 265 168 290 14 25 124 216 245 425 121 209 227
394 237 410 9 17 64 111 121 210 99 171 104 183 103 235 0 36 -7 67 -21 90
-11 19 -50 86 -87 148 -36 62 -77 132 -90 155 -13 23 -171 296 -351 607 -180
311 -336 581 -347 600 -17 29 -63 109 -98 170 -5 8 -32 56 -61 105 -29 50 -92
159 -141 243 -49 84 -98 168 -109 185 -10 18 -22 39 -26 47 -4 8 -34 62 -68
120 -34 58 -113 193 -174 300 -113 195 -138 232 -176 253 -15 9 -453 12 -1730
12 -940 0 -1720 -1 -1731 -3z m3329 -377 c19 -33 44 -76 55 -95 78 -137 315
-547 321 -555 5 -5 22 -35 38 -65 17 -30 120 -210 230 -400 111 -190 210 -361
221 -380 10 -19 142 -246 292 -505 149 -258 286 -495 303 -525 16 -30 41 -72
54 -92 12 -21 23 -42 23 -47 0 -5 -37 -73 -83 -152 -46 -79 -245 -423 -442
-764 -197 -341 -418 -721 -490 -845 -72 -124 -134 -232 -138 -240 -4 -8 -16
-30 -27 -48 -11 -18 -73 -124 -137 -235 -63 -111 -119 -206 -123 -212 -4 -5
-22 -37 -40 -70 -18 -33 -47 -82 -65 -110 l-31 -50 -1574 0 -1573 0 -23 35
c-17 26 -836 1439 -954 1645 -32 56 -277 479 -439 758 -88 153 -161 282 -161
287 0 5 48 91 106 192 59 101 118 203 132 228 14 25 33 57 43 72 11 14 19 29
19 32 0 3 25 46 55 97 30 50 55 93 55 95 0 3 19 37 43 77 62 104 135 229 292
502 76 132 233 404 350 605 116 201 271 469 344 595 l133 231 1578 -1 1578 0
35 -60z"/>
</g>
</svg>
